# xmcd CD database file
#
# Track frame offsets:
#	225
#	27632
#	45371
#	62291
#	81089
#	115426
#	126379
#	147013
#	158892
#	169160
#	195363
#	214718
#	227939
#	246496
#	267526
#	289921
#
# Disc length: 4071 seconds
#
# Revision: 1
# Processed by: cddbd v1.5.1PL2 Copyright (c) Steve Scherf et al.
# Submitted via: CDex 1.70beta2
#
DISCID=ee0fe410
DTITLE=mix - Jahrtausendhits Black Musik cd2
DYEAR=1900
DGENRE=
TTITLE0=James Bown - Sex Machine
TTITLE1=La Mazz - when doves cry
TTITLE2=Ike and Tina Turner - Golden Empire
TTITLE3=Amii Steward - knock on wood
TTITLE4=the real Thing - can you feel the force
TTITLE5=the Platters - smoke gets in your Eyes
TTITLE6=Gloria Gaynor feat. Isaac Hayes - you're the first, the last, my everything
TTITLE7=Edwin Starr - breaking down the walls of Hertache
TTITLE8=the Drifters - save the Last Dance for me
TTITLE9=B. B. King - guess who
TTITLE10=the Commodores - shut up and dance 
TTITLE11=Afrika Bambataa - Bang Bang
TTITLE12=Dr. Dree - Snoop Doggy Dog - 187 Ulm
TTITLE13=M. C. Hammer - sweat
TTITLE14=Johnny Guitar Watson - Time Change
TTITLE15=Peter Tosh - get up and stand up
EXTD=
EXTT0=
EXTT1=
EXTT2=
EXTT3=
EXTT4=
EXTT5=
EXTT6=
EXTT7=
EXTT8=
EXTT9=
EXTT10=
EXTT11=
EXTT12=
EXTT13=
EXTT14=
EXTT15=
PLAYORDER=
